# xmcd
#
# Track frame offsets:
# 150
# 21361
# 38282
# 53104
# 74696
# 108718
# 124271
# 139994
# 166159
# 185912
# 209756
# 226130
#
# Disc length: 3270 seconds
#
# Revision: 1
# Processed by: cddbd v1.5.2PL0 Copyright (c) Steve Scherf et al.
# Submitted via: CedeCatalogueitor 2.6.0.6 http://personales.ya.com/cdcatalogueitor
#
DISCID=b50cc40c
DTITLE=Travolta - El Efecto Amor
DYEAR=1900
DGENRE=
TTITLE0=Telescopio
TTITLE1=Con Los Ojos Bien Abiertos
TTITLE2=Corazón Valiente
TTITLE3=Hasta El Final
TTITLE4=La Casa
TTITLE5=El Efecto Amor
TTITLE6=Lloviendo A Mares
TTITLE7=Colores
TTITLE8=Los Que Se Dieron Por Vencidos
TTITLE9=Juego De Palabras
TTITLE10=Un Gran Espectáculo
TTITLE11=Este Momento Especial
EXTD=
EXTT0=
EXTT1=
EXTT2=
EXTT3=
EXTT4=
EXTT5=
EXTT6=
EXTT7=
EXTT8=
EXTT9=
EXTT10=
EXTT11=
PLAYORDER=
